<svg xmlns="http://www.w3.org/2000/svg" xmlns:xlink="http://www.w3.org/1999/xlink" width="736" height="227" version="1.1" viewBox="0 0 736 227"><title>Slice 1</title><desc>Created with Sketch.</desc><g id="Page-1" fill="none" fill-rule="evenodd" stroke="none" stroke-width="1"><polygon id="Triangle-4" fill="#FFF" points="257.5 66.008 297 122.008 284.42 115.469 271.334 140.225 255.121 110.135 243.668 122.008 238.283 105.133 218 122.008"/><polygon id="Triangle-1" fill="#DEDEDE" points="155.5 1.008 311 226.008 0 226.008"/><polygon id="Triangle-4" fill="#FFF" points="155.5 1.008 195 57.008 182.42 50.469 169.334 75.225 153.121 45.135 141.668 57.008 136.283 40.133 116 57.008"/><path id="Combined-Shape" fill="#DEDEDE" d="M467.811111,226.007812 L336.5,36.0078125 L205.188889,226.007812 L467.811111,226.007812 Z"/><path id="Combined-Shape" fill="#DEDEDE" d="M735.395683,226.007812 L580,1.0078125 L424.604317,226.007813 L735.395683,226.007812 Z"/><polygon id="Triangle-4" fill="#FFF" points="468.5 36.008 508 92.008 495.42 85.469 482.334 110.225 466.121 80.135 454.668 92.008 449.283 75.133 429 92.008"/><path id="Triangle-4" fill="#FFF" d="M581.181641,0 L620.417969,58.1816406 L608.365234,48.46875 L596.244141,62.765625 L577.447266,42.4277344 L566.236328,68.6015625 L557.943359,42.4277344 L541.945312,55.0078125 L581.181641,0 Z M336.708984,34 L375.945312,90 L363.449209,83.4609375 L350.450624,108.216797 L334.345958,78.1269531 L322.969285,90 L317.620464,73.125 L297.472656,90 L336.708984,34 Z"/></g></svg>