<svg xmlns="http://www.w3.org/2000/svg" xmlns:xlink="http://www.w3.org/1999/xlink" width="173" height="173" version="1.1" viewBox="0 0 173 173"><title>Slice 1</title><desc>Created with Sketch.</desc><defs><polygon id="path-1" points="30.358 73.327 25.641 79.421 20.924 73.327 20.924 27.437 .778 27.437 25.641 .274 50.245 27.437 30.358 27.437"/><polygon id="path-3" points="30.358 73.327 25.641 79.421 20.924 73.327 20.924 27.437 .778 27.437 25.641 .274 50.245 27.437 30.358 27.437"/><polygon id="path-5" points="30.358 73.327 25.641 79.421 20.924 73.327 20.924 27.437 .778 27.437 25.641 .274 50.245 27.437 30.358 27.437"/><polygon id="path-7" points="30.358 73.327 25.641 79.421 20.924 73.327 20.924 27.437 .778 27.437 25.641 .274 50.245 27.437 30.358 27.437"/></defs><g id="Page-1" fill="none" fill-rule="evenodd" stroke="none" stroke-width="1"><g id="g3664" transform="translate(1.554153, 1.334411)"><g id="g12802" transform="translate(40.929865, 82.945316) rotate(-90.000000) translate(-40.929865, -82.945316) translate(10.615465, 42.525955)"><g id="g12804" transform="translate(0.297307, 0.885790)"><g id="g12806" fill="#932279" transform="translate(0.706587, -0.000044)"><polygon id="path12808" points="33.318 70.374 27.185 76.544 21.051 70.374 21.051 26.948 .614 26.948 27.185 .465 53.308 26.948 33.319 26.948 33.318 70.374"/></g><g id="g12812-Clipped" transform="translate(8.509305, 0.000000)"><mask id="mask-2" fill="#fff"><use xlink:href="#path-1"/></mask></g></g></g><g id="g12768" transform="translate(57.111575, 0.469950)"><g id="g12770" transform="translate(0.297307, 0.885790)"><g id="g12772" fill="#EFA724" transform="translate(0.706587, -0.000044)"><polygon id="path12774" points="33.318 70.374 27.185 76.544 21.051 70.374 21.051 26.948 .614 26.948 27.185 .465 53.308 26.948 33.319 26.948 33.318 70.374"/></g><g id="g12778-Clipped" transform="translate(8.509305, 0.000000)"><mask id="mask-4" fill="#fff"><use xlink:href="#path-3"/></mask></g></g></g><g id="g12780" transform="translate(129.127857, 87.151068) rotate(90.000000) translate(-129.127857, -87.151068) translate(99.345288, 47.263540)"><g id="g12782" fill="#262577" transform="translate(0.706587, -0.000044)"><polygon id="path12784" points="33.318 70.374 27.185 76.544 21.051 70.374 21.051 26.948 .614 26.948 27.185 .465 53.308 26.948 33.319 26.948 33.318 70.374"/></g><g id="g12788-Clipped" transform="translate(8.509305, 0.000000)"><mask id="mask-6" fill="#fff"><use xlink:href="#path-5"/></mask></g></g><g id="g12790" transform="translate(82.985543, 129.441622) rotate(-180.000000) translate(-82.985543, -129.441622) translate(52.671143, 89.022261)"><g id="g12792" transform="translate(0.297307, 0.885790)"><g id="g12794" fill="#9CCD2A" transform="translate(0.706587, -0.000044)"><polygon id="path12796" points="33.318 70.374 27.185 76.544 21.051 70.374 21.051 26.948 .614 26.948 27.185 .465 53.308 26.948 33.319 26.948 33.318 70.374"/></g><g id="g12800-Clipped" transform="translate(8.509305, 0.000000)"><mask id="mask-8" fill="#fff"><use xlink:href="#path-7"/></mask></g></g></g><g id="g12742" fill-rule="nonzero" stroke="#FFF" stroke-width="3.769" transform="translate(25.740840, 25.907960)"><polygon id="rect12744" fill="#9CCD2A" points="1.047 .84 53.812 .84 53.812 53.604 1.047 53.604"/><polygon id="rect12746" fill="#932279" points="65.118 .84 117.883 .84 117.883 53.604 65.118 53.604"/><polygon id="rect12748" fill="#EFA724" points="65.118 64.911 117.883 64.911 117.883 117.676 65.118 117.676"/><polygon id="rect12750" fill="#262577" points="1.047 64.911 53.812 64.911 53.812 117.676 1.047 117.676"/></g><polygon id="rect12760" stroke="#FFF" stroke-width="3.769" points="13.518 58.783 66.283 58.783 66.283 111.548 13.518 111.548" transform="translate(39.900456, 85.165663) rotate(-45.000000) translate(-39.900456, -85.165663)"/><polygon id="rect12762" stroke="#FFF" stroke-width="3.769" points="58.823 13.478 111.588 13.478 111.588 66.243 58.823 66.243" transform="translate(85.205707, 39.860232) rotate(-45.000000) translate(-85.205707, -39.860232)"/><polygon id="rect12764" stroke="#FFF" stroke-width="3.769" points="93.201 85.166 130.511 47.855 167.821 85.166 130.511 122.476"/><polygon id="rect12766" stroke="#FFF" stroke-width="3.769" points="58.823 104.089 111.588 104.089 111.588 156.853 58.823 156.853" transform="translate(85.205613, 130.471001) rotate(-45.000000) translate(-85.205613, -130.471001)"/></g></g></svg>