<svg xmlns="http://www.w3.org/2000/svg" xmlns:svg="http://www.w3.org/2000/svg" id="svg3002" width="677.017" height="298.489" version="1.1"><metadata id="metadata3007"/><g id="layer1" transform="translate(78.508504,-291.68916)"><g style="stroke-width:.40052065;stroke-miterlimit:10" id="g6" transform="matrix(2.1789862,0,0,2.1329101,-246.16678,-793.7116)"><g style="stroke-width:.40052065" id="g8" transform="matrix(0.1,0,0,-0.1,0,840)"><path style="fill:#777;stroke:none" id="path10" d="m 834,3091.06 c 0,0 -12.27,28.54 -46.87,9.44 -28.77,-15.96 -13.809,-45.43 -13.809,-45.43 l 540.689,-1143.34 131.16,0 -611.179,1179.33"/><path style="fill:#f26711;stroke:none" id="path14" d="m 3876.46,3169.4 c -512.64,246.04 -976.45,128.54 -1495.2,-26.7 -522.23,-156.2 -986.75,-240.74 -1508.58,-27.83 56.85,-101.58 85.31,-152.36 142.19,-253.86 52.22,-93.37 104.51,-186.73 156.75,-280.06 56.87,-101.56 85.3,-152.3 142.18,-253.84 415.48,-117.43 759.56,34.86 1128.77,219.44 443.36,221.52 843.83,420.81 1350.39,305.34 -428.09,214.37 -816.17,161.24 -1263.79,39.8 438.24,223.1 850.84,396.62 1347.29,277.71"/></g></g></g></svg>